<mxfile host="app.diagrams.net" agent="Mozilla/5.0 (Macintosh; Intel Mac OS X 10.15; rv:135.0) Gecko/20100101 Firefox/135.0" version="26.1.1">
  <diagram name="Page-1" id="DlH-jFZh-rNN-EfYR_9r">
    <mxGraphModel dx="1010" dy="559" grid="1" gridSize="10" guides="1" tooltips="1" connect="1" arrows="1" fold="1" page="1" pageScale="1" pageWidth="850" pageHeight="1100" math="0" shadow="0">
      <root>
        <mxCell id="0" />
        <mxCell id="1" parent="0" />
        <mxCell id="dyp7_rvsVn9EUOheR4vj-1" value="" style="html=1;outlineConnect=0;fillColor=#CCCCCC;strokeColor=#6881B3;gradientColor=none;gradientDirection=north;strokeWidth=2;shape=mxgraph.networks.cloud;fontColor=#ffffff;" vertex="1" parent="1">
          <mxGeometry x="360" y="10" width="90" height="50" as="geometry" />
        </mxCell>
        <mxCell id="dyp7_rvsVn9EUOheR4vj-2" value="" style="fontColor=#0066CC;verticalAlign=top;verticalLabelPosition=bottom;labelPosition=center;align=center;html=1;outlineConnect=0;fillColor=#CCCCCC;strokeColor=#6881B3;gradientColor=none;gradientDirection=north;strokeWidth=2;shape=mxgraph.networks.router;" vertex="1" parent="1">
          <mxGeometry x="355" y="90" width="100" height="30" as="geometry" />
        </mxCell>
        <mxCell id="dyp7_rvsVn9EUOheR4vj-8" style="edgeStyle=orthogonalEdgeStyle;rounded=0;orthogonalLoop=1;jettySize=auto;html=1;exitX=0.5;exitY=1;exitDx=0;exitDy=0;exitPerimeter=0;" edge="1" parent="1" source="dyp7_rvsVn9EUOheR4vj-3" target="dyp7_rvsVn9EUOheR4vj-7">
          <mxGeometry relative="1" as="geometry" />
        </mxCell>
        <mxCell id="dyp7_rvsVn9EUOheR4vj-3" value="" style="fontColor=#0066CC;verticalAlign=top;verticalLabelPosition=bottom;labelPosition=center;align=center;html=1;outlineConnect=0;fillColor=#CCCCCC;strokeColor=#6881B3;gradientColor=none;gradientDirection=north;strokeWidth=2;shape=mxgraph.networks.switch;" vertex="1" parent="1">
          <mxGeometry x="355" y="180" width="100" height="30" as="geometry" />
        </mxCell>
        <mxCell id="dyp7_rvsVn9EUOheR4vj-4" value="Unifi Aggregation" style="text;html=1;align=center;verticalAlign=middle;resizable=0;points=[];autosize=1;strokeColor=none;fillColor=none;" vertex="1" parent="1">
          <mxGeometry x="450" y="180" width="120" height="30" as="geometry" />
        </mxCell>
        <mxCell id="dyp7_rvsVn9EUOheR4vj-5" value="UCG-Fiber" style="text;html=1;align=center;verticalAlign=middle;resizable=0;points=[];autosize=1;strokeColor=none;fillColor=none;" vertex="1" parent="1">
          <mxGeometry x="455" y="90" width="80" height="30" as="geometry" />
        </mxCell>
        <mxCell id="dyp7_rvsVn9EUOheR4vj-6" style="edgeStyle=orthogonalEdgeStyle;rounded=1;orthogonalLoop=1;jettySize=auto;html=1;exitX=0.5;exitY=1;exitDx=0;exitDy=0;exitPerimeter=0;entryX=0.5;entryY=0;entryDx=0;entryDy=0;entryPerimeter=0;endArrow=none;startFill=0;curved=0;" edge="1" parent="1" source="dyp7_rvsVn9EUOheR4vj-2" target="dyp7_rvsVn9EUOheR4vj-3">
          <mxGeometry relative="1" as="geometry" />
        </mxCell>
        <mxCell id="dyp7_rvsVn9EUOheR4vj-7" value="" style="fontColor=#0066CC;verticalAlign=top;verticalLabelPosition=bottom;labelPosition=center;align=center;html=1;outlineConnect=0;fillColor=#CCCCCC;strokeColor=#6881B3;gradientColor=none;gradientDirection=north;strokeWidth=2;shape=mxgraph.networks.server;" vertex="1" parent="1">
          <mxGeometry x="110" y="260" width="90" height="100" as="geometry" />
        </mxCell>
        <mxCell id="dyp7_rvsVn9EUOheR4vj-9" value="" style="fontColor=#0066CC;verticalAlign=top;verticalLabelPosition=bottom;labelPosition=center;align=center;html=1;outlineConnect=0;fillColor=#CCCCCC;strokeColor=#6881B3;gradientColor=none;gradientDirection=north;strokeWidth=2;shape=mxgraph.networks.server;" vertex="1" parent="1">
          <mxGeometry x="210" y="260" width="90" height="100" as="geometry" />
        </mxCell>
        <mxCell id="dyp7_rvsVn9EUOheR4vj-10" style="edgeStyle=orthogonalEdgeStyle;rounded=0;orthogonalLoop=1;jettySize=auto;html=1;exitX=0.5;exitY=1;exitDx=0;exitDy=0;exitPerimeter=0;entryX=0.5;entryY=0;entryDx=0;entryDy=0;entryPerimeter=0;" edge="1" parent="1" source="dyp7_rvsVn9EUOheR4vj-3" target="dyp7_rvsVn9EUOheR4vj-9">
          <mxGeometry relative="1" as="geometry" />
        </mxCell>
        <mxCell id="dyp7_rvsVn9EUOheR4vj-11" style="edgeStyle=orthogonalEdgeStyle;rounded=0;orthogonalLoop=1;jettySize=auto;html=1;exitX=0.5;exitY=1;exitDx=0;exitDy=0;exitPerimeter=0;entryX=0.5;entryY=0;entryDx=0;entryDy=0;entryPerimeter=0;endArrow=none;startFill=0;" edge="1" parent="1" source="dyp7_rvsVn9EUOheR4vj-1" target="dyp7_rvsVn9EUOheR4vj-2">
          <mxGeometry relative="1" as="geometry" />
        </mxCell>
        <mxCell id="dyp7_rvsVn9EUOheR4vj-15" style="edgeStyle=orthogonalEdgeStyle;rounded=0;orthogonalLoop=1;jettySize=auto;html=1;exitX=0.5;exitY=1;exitDx=0;exitDy=0;exitPerimeter=0;endArrow=none;startFill=0;" edge="1" parent="1" source="dyp7_rvsVn9EUOheR4vj-12" target="dyp7_rvsVn9EUOheR4vj-14">
          <mxGeometry relative="1" as="geometry" />
        </mxCell>
        <mxCell id="dyp7_rvsVn9EUOheR4vj-12" value="" style="fontColor=#0066CC;verticalAlign=top;verticalLabelPosition=bottom;labelPosition=center;align=center;html=1;outlineConnect=0;fillColor=#CCCCCC;strokeColor=#6881B3;gradientColor=none;gradientDirection=north;strokeWidth=2;shape=mxgraph.networks.switch;" vertex="1" parent="1">
          <mxGeometry x="355" y="330" width="100" height="30" as="geometry" />
        </mxCell>
        <mxCell id="dyp7_rvsVn9EUOheR4vj-13" style="edgeStyle=orthogonalEdgeStyle;rounded=0;orthogonalLoop=1;jettySize=auto;html=1;exitX=0.5;exitY=1;exitDx=0;exitDy=0;exitPerimeter=0;entryX=0.5;entryY=0;entryDx=0;entryDy=0;entryPerimeter=0;endArrow=none;startFill=0;" edge="1" parent="1" source="dyp7_rvsVn9EUOheR4vj-3" target="dyp7_rvsVn9EUOheR4vj-12">
          <mxGeometry relative="1" as="geometry" />
        </mxCell>
        <mxCell id="dyp7_rvsVn9EUOheR4vj-14" value="" style="fontColor=#0066CC;verticalAlign=top;verticalLabelPosition=bottom;labelPosition=center;align=center;html=1;outlineConnect=0;fillColor=#CCCCCC;strokeColor=#6881B3;gradientColor=none;gradientDirection=north;strokeWidth=2;shape=mxgraph.networks.patch_panel;" vertex="1" parent="1">
          <mxGeometry x="355" y="380" width="100" height="35" as="geometry" />
        </mxCell>
        <mxCell id="dyp7_rvsVn9EUOheR4vj-16" value="Cable Drops" style="text;html=1;align=center;verticalAlign=middle;resizable=0;points=[];autosize=1;strokeColor=none;fillColor=none;" vertex="1" parent="1">
          <mxGeometry x="450" y="385" width="90" height="30" as="geometry" />
        </mxCell>
        <mxCell id="dyp7_rvsVn9EUOheR4vj-17" value="Unifi Flex 2.5G" style="text;html=1;align=center;verticalAlign=middle;resizable=0;points=[];autosize=1;strokeColor=none;fillColor=none;" vertex="1" parent="1">
          <mxGeometry x="455" y="330" width="100" height="30" as="geometry" />
        </mxCell>
        <mxCell id="dyp7_rvsVn9EUOheR4vj-18" value="Alden Server" style="text;html=1;align=center;verticalAlign=middle;resizable=0;points=[];autosize=1;strokeColor=none;fillColor=none;" vertex="1" parent="1">
          <mxGeometry x="110" y="360" width="90" height="30" as="geometry" />
        </mxCell>
        <mxCell id="dyp7_rvsVn9EUOheR4vj-19" value="Family Server" style="text;html=1;align=center;verticalAlign=middle;resizable=0;points=[];autosize=1;strokeColor=none;fillColor=none;" vertex="1" parent="1">
          <mxGeometry x="200" y="360" width="100" height="30" as="geometry" />
        </mxCell>
      </root>
    </mxGraphModel>
  </diagram>
</mxfile>
